{
	"accessors" : 
	[
		{
			"bufferView" : 2,
			"byteOffset" : 0,
			"componentType" : 5126,
			"count" : 9992,
			"max" : 
			[
				0.2631747424602509,
				0.5542271137237549,
				0.07805658876895905,
				1
			],
			"min" : 
			[
				0.0697270855307579,
				0.4368127584457397,
				0.06575388461351395,
				1
			],
			"name" : "accessor_color_m0-PolyPaper9_-40210",
			"type" : "VEC4"
		},
		{
			"bufferView" : 2,
			"byteOffset" : 159872,
			"componentType" : 5126,
			"count" : 9984,
			"max" : 
			[
				0.2631747424602509,
				0.5542271137237549,
				0.07805658876895905,
				1
			],
			"min" : 
			[
				0.0697270855307579,
				0.4368127584457397,
				0.06575388461351395,
				1
			],
			"name" : "accessor_color_m1-PolyPaper9_-40212",
			"type" : "VEC4"
		},
		{
			"bufferView" : 2,
			"byteOffset" : 319616,
			"componentType" : 5126,
			"count" : 730,
			"max" : 
			[
				0.2631747424602509,
				0.5542271137237549,
				0.07805658876895905,
				1
			],
			"min" : 
			[
				0.0697270855307579,
				0.4368127584457397,
				0.06575388461351395,
				1
			],
			"name" : "accessor_color_m2-PolyPaper10_-40442",
			"type" : "VEC4"
		},
		{
			"bufferView" : 0,
			"byteOffset" : 0,
			"componentType" : 5123,
			"count" : 12360,
			"max" : 
			[
				9991
			],
			"min" : 
			[
				0
			],
			"name" : "accessor_indices_0_m0-PolyPaper9_-40210",
			"type" : "SCALAR"
		},
		{
			"bufferView" : 0,
			"byteOffset" : 24720,
			"componentType" : 5123,
			"count" : 12360,
			"max" : 
			[
				9983
			],
			"min" : 
			[
				0
			],
			"name" : "accessor_indices_0_m1-PolyPaper9_-40212",
			"type" : "SCALAR"
		},
		{
			"bufferView" : 0,
			"byteOffset" : 49440,
			"componentType" : 5123,
			"count" : 900,
			"max" : 
			[
				729
			],
			"min" : 
			[
				0
			],
			"name" : "accessor_indices_0_m2-PolyPaper10_-40442",
			"type" : "SCALAR"
		},
		{
			"bufferView" : 1,
			"byteOffset" : 119904,
			"componentType" : 5126,
			"count" : 9992,
			"max" : 
			[
				0.9998972,
				0.8874326,
				0.9998972
			],
			"min" : 
			[
				-0.9995031,
				-0.9996792,
				-0.9998971
			],
			"name" : "accessor_normal_m0-PolyPaper9_-40210",
			"type" : "VEC3"
		},
		{
			"bufferView" : 1,
			"byteOffset" : 359616,
			"componentType" : 5126,
			"count" : 9984,
			"max" : 
			[
				0.9998972,
				0.8874406,
				0.9992869
			],
			"min" : 
			[
				-0.9995031,
				-0.9996792,
				-0.9998972
			],
			"name" : "accessor_normal_m1-PolyPaper9_-40212",
			"type" : "VEC3"
		},
		{
			"bufferView" : 1,
			"byteOffset" : 488184,
			"componentType" : 5126,
			"count" : 730,
			"max" : 
			[
				0.9998972,
				0.8845426,
				0.9966432
			],
			"min" : 
			[
				-0.9950864,
				-0.9996791,
				-0.9942755
			],
			"name" : "accessor_normal_m2-PolyPaper10_-40442",
			"type" : "VEC3"
		},
		{
			"bufferView" : 1,
			"byteOffset" : 0,
			"componentType" : 5126,
			"count" : 9992,
			"max" : 
			[
				1.048402,
				0.8488706,
				0.4217315
			],
			"min" : 
			[
				-1.215711,
				-0.0146708,
				-1.76587
			],
			"name" : "accessor_position_m0-PolyPaper9_-40210",
			"type" : "VEC3"
		},
		{
			"bufferView" : 1,
			"byteOffset" : 239808,
			"componentType" : 5126,
			"count" : 9984,
			"max" : 
			[
				1.547075,
				0.8819552000000001,
				0.6816607
			],
			"min" : 
			[
				-1.233961,
				0.01845749,
				-2.161682
			],
			"name" : "accessor_position_m1-PolyPaper9_-40212",
			"type" : "VEC3"
		},
		{
			"bufferView" : 1,
			"byteOffset" : 479424,
			"componentType" : 5126,
			"count" : 730,
			"max" : 
			[
				-0.2913478,
				0.875677,
				0.4343852
			],
			"min" : 
			[
				-0.8177209,
				0.1065588,
				-0.1634201
			],
			"name" : "accessor_position_m2-PolyPaper10_-40442",
			"type" : "VEC3"
		}
	],
	"asset" : 
	{
		"copyright" : "Unknown",
		"generator" : "glTF 1-to-2 Upgrader for Google Blocks",
		"version" : "2.0"
	},
	"bufferViews" : 
	[
		{
			"buffer" : 0,
			"byteLength" : 51240,
			"byteOffset" : 0,
			"name" : "ushortBufferView",
			"target" : 34963
		},
		{
			"buffer" : 0,
			"byteLength" : 496944,
			"byteOffset" : 51240,
			"byteStride" : 12,
			"name" : "vec3BufferView",
			"target" : 34962
		},
		{
			"buffer" : 0,
			"byteLength" : 331296,
			"byteOffset" : 548184,
			"byteStride" : 16,
			"name" : "vec4BufferView",
			"target" : 34962
		}
	],
	"buffers" : 
	[
		{
			"byteLength" : 879480,
			"name" : "model",
			"uri" : "model.bin"
		}
	],
	"materials" : 
	[
		{
			"alphaMode" : "OPAQUE",
			"doubleSided" : false,
			"name" : "BlocksPaper",
			"pbrMetallicRoughness" : 
			{
				"baseColorFactor" : 
				[
					1,
					1,
					1,
					1
				],
				"metallicFactor" : 0,
				"roughnessFactor" : 0.6
			}
		},
		{
			"alphaMode" : "BLEND",
			"doubleSided" : false,
			"name" : "BlocksGlass",
			"pbrMetallicRoughness" : 
			{
				"baseColorFactor" : 
				[
					0.2,
					0.2,
					1,
					0.3
				],
				"metallicFactor" : 1,
				"roughnessFactor" : 0.4
			}
		},
		{
			"alphaMode" : "OPAQUE",
			"doubleSided" : true,
			"name" : "BlocksGem",
			"pbrMetallicRoughness" : 
			{
				"baseColorFactor" : 
				[
					1,
					0.4,
					1,
					1
				],
				"metallicFactor" : 0,
				"roughnessFactor" : 0.1
			}
		}
	],
	"meshes" : 
	[
		{
			"name" : "mesh_m0-PolyPaper9_-40210",
			"primitives" : 
			[
				{
					"attributes" : 
					{
						"COLOR_0" : 0,
						"NORMAL" : 6,
						"POSITION" : 9
					},
					"indices" : 3,
					"material" : 0,
					"mode" : 4
				}
			]
		},
		{
			"name" : "mesh_m1-PolyPaper9_-40212",
			"primitives" : 
			[
				{
					"attributes" : 
					{
						"COLOR_0" : 1,
						"NORMAL" : 7,
						"POSITION" : 10
					},
					"indices" : 4,
					"material" : 0,
					"mode" : 4
				}
			]
		},
		{
			"name" : "mesh_m2-PolyPaper10_-40442",
			"primitives" : 
			[
				{
					"attributes" : 
					{
						"COLOR_0" : 2,
						"NORMAL" : 8,
						"POSITION" : 11
					},
					"indices" : 5,
					"material" : 0,
					"mode" : 4
				}
			]
		}
	],
	"nodes" : 
	[
		{
			"matrix" : 
			[
				1,
				0,
				0,
				0,
				0,
				1,
				0,
				0,
				0,
				0,
				1,
				0,
				0,
				0,
				0,
				1
			],
			"mesh" : 2,
			"name" : "node_MeshObject1430771392-PolyPaper10"
		},
		{
			"matrix" : 
			[
				1,
				0,
				0,
				0,
				0,
				1,
				0,
				0,
				0,
				0,
				1,
				0,
				0,
				0,
				0,
				1
			],
			"mesh" : 0,
			"name" : "node_MeshObject254429056-PolyPaper9"
		},
		{
			"matrix" : 
			[
				1,
				0,
				0,
				0,
				0,
				1,
				0,
				0,
				0,
				0,
				1,
				0,
				0,
				0,
				0,
				1
			],
			"mesh" : 1,
			"name" : "node_MeshObject773149120-PolyPaper9"
		}
	],
	"scene" : 0,
	"scenes" : 
	[
		{
			"extras" : {},
			"name" : "defaultScene",
			"nodes" : 
			[
				1,
				2,
				0
			]
		}
	]
}