{
  "accessors": [
    {
      "bufferView": 0,
      "byteOffset": 0,
      "componentType": 5123,
      "count": 1836,
      "max": [
        660.0
      ],
      "min": [
        0.0
      ],
      "name": "buffer-0-group-0-mesh-0-indices",
      "type": "SCALAR"
    },
    {
      "bufferView": 1,
      "byteOffset": 0,
      "componentType": 5126,
      "count": 661,
      "max": [
        -4.197000026702881,
        2.009999990463257,
        1.6991000175476074
      ],
      "min": [
        -4.480100154876709,
        1.5779000520706177,
        1.4886000156402588
      ],
      "name": "buffer-0-group-0-mesh-0-position",
      "type": "VEC3"
    },
    {
      "bufferView": 1,
      "byteOffset": 7932,
      "componentType": 5126,
      "count": 661,
      "max": [
        0.999159574508667,
        0.9998271465301514,
        0.992202639579773
      ],
      "min": [
        -0.9981858730316162,
        -0.9777662754058838,
        -0.9903052449226379
      ],
      "name": "buffer-0-group-0-mesh-0-normal",
      "type": "VEC3"
    },
    {
      "bufferView": 2,
      "byteOffset": 0,
      "componentType": 5126,
      "count": 661,
      "max": [
        0.9793000221252441,
        -0.058400001376867294
      ],
      "min": [
        0.007499999832361937,
        -1.0077999830245972
      ],
      "name": "buffer-0-group-0-mesh-0-texcoord",
      "type": "VEC2"
    },
    {
      "bufferView": 0,
      "byteOffset": 3672,
      "componentType": 5123,
      "count": 7761,
      "max": [
        2616.0
      ],
      "min": [
        0.0
      ],
      "name": "buffer-0-group-1-mesh-0-indices",
      "type": "SCALAR"
    },
    {
      "bufferView": 1,
      "byteOffset": 15864,
      "componentType": 5126,
      "count": 2617,
      "max": [
        -4.134699821472168,
        1.8450000286102295,
        1.7971999645233154
      ],
      "min": [
        -4.549499988555908,
        0.29339998960494995,
        1.361899971961975
      ],
      "name": "buffer-0-group-1-mesh-0-position",
      "type": "VEC3"
    },
    {
      "bufferView": 1,
      "byteOffset": 47268,
      "componentType": 5126,
      "count": 2617,
      "max": [
        0.9999502301216125,
        0.9998745322227478,
        0.9995200037956238
      ],
      "min": [
        -0.9997752904891968,
        -0.999986469745636,
        -0.9999727606773376
      ],
      "name": "buffer-0-group-1-mesh-0-normal",
      "type": "VEC3"
    },
    {
      "bufferView": 2,
      "byteOffset": 5288,
      "componentType": 5126,
      "count": 2617,
      "max": [
        0.994700014591217,
        -0.008500000461935997
      ],
      "min": [
        0.008100000210106373,
        -0.9940000176429749
      ],
      "name": "buffer-0-group-1-mesh-0-texcoord",
      "type": "VEC2"
    },
    {
      "bufferView": 0,
      "byteOffset": 19194,
      "componentType": 5123,
      "count": 1014,
      "max": [
        345.0
      ],
      "min": [
        0.0
      ],
      "name": "buffer-0-group-2-mesh-0-indices",
      "type": "SCALAR"
    },
    {
      "bufferView": 1,
      "byteOffset": 78672,
      "componentType": 5126,
      "count": 346,
      "max": [
        -4.095200061798096,
        1.2347999811172485,
        1.6711000204086304
      ],
      "min": [
        -4.587699890136719,
        1.0772000551223755,
        1.4315999746322632
      ],
      "name": "buffer-0-group-2-mesh-0-position",
      "type": "VEC3"
    },
    {
      "bufferView": 1,
      "byteOffset": 82824,
      "componentType": 5126,
      "count": 346,
      "max": [
        0.9998863339424133,
        0.6125915050506592,
        0.994400680065155
      ],
      "min": [
        -0.9995856881141663,
        -0.9487249255180359,
        -0.9940938353538513
      ],
      "name": "buffer-0-group-2-mesh-0-normal",
      "type": "VEC3"
    },
    {
      "bufferView": 2,
      "byteOffset": 26224,
      "componentType": 5126,
      "count": 346,
      "max": [
        0.6007000207901001,
        -0.29980000853538513
      ],
      "min": [
        0.23999999463558197,
        -0.7861999869346619
      ],
      "name": "buffer-0-group-2-mesh-0-texcoord",
      "type": "VEC2"
    },
    {
      "bufferView": 0,
      "byteOffset": 21222,
      "componentType": 5123,
      "count": 1380,
      "max": [
        290.0
      ],
      "min": [
        0.0
      ],
      "name": "buffer-0-group-3-mesh-0-indices",
      "type": "SCALAR"
    },
    {
      "bufferView": 1,
      "byteOffset": 86976,
      "componentType": 5126,
      "count": 291,
      "max": [
        -4.270500183105469,
        1.9737999439239502,
        1.6930999755859375
      ],
      "min": [
        -4.432799816131592,
        1.7711999416351318,
        1.520300030708313
      ],
      "name": "buffer-0-group-3-mesh-0-position",
      "type": "VEC3"
    },
    {
      "bufferView": 1,
      "byteOffset": 90468,
      "componentType": 5126,
      "count": 291,
      "max": [
        0.9996531009674072,
        0.9964332580566406,
        0.9965940117835999
      ],
      "min": [
        -0.9993575811386108,
        -0.9926257133483887,
        -0.9986744523048401
      ],
      "name": "buffer-0-group-3-mesh-0-normal",
      "type": "VEC3"
    },
    {
      "bufferView": 2,
      "byteOffset": 28992,
      "componentType": 5126,
      "count": 291,
      "max": [
        0.9940000176429749,
        -0.03150000050663948
      ],
      "min": [
        0.007199999876320362,
        -0.7804999947547913
      ],
      "name": "buffer-0-group-3-mesh-0-texcoord",
      "type": "VEC2"
    }
  ],
  "asset": {
    "generator": "Obj2GltfConverter",
    "version": "2.0"
  },
  "bufferViews": [
    {
      "buffer": 0,
      "byteLength": 23982,
      "byteOffset": 0,
      "name": "buffer-0-bufferview-ushort",
      "target": 34963
    },
    {
      "buffer": 0,
      "byteLength": 93960,
      "byteOffset": 23988,
      "byteStride": 12,
      "name": "buffer-0-bufferview-vec3",
      "target": 34962
    },
    {
      "buffer": 0,
      "byteLength": 31320,
      "byteOffset": 117952,
      "byteStride": 8,
      "name": "buffer-0-bufferview-vec2",
      "target": 34962
    }
  ],
  "buffers": [
    {
      "byteLength": 149272,
      "name": "buffer-0",
      "uri": "google poly.bin"
    }
  ],
  "images": [
    {
      "mimeType": "image/jpeg",
      "name": "5_Default-diffuse-image",
      "uri": "12d76eb0-nen.jpg"
    },
    {
      "mimeType": "image/jpeg",
      "name": "6_Default-diffuse-image",
      "uri": "19fa3870-nen.jpg"
    },
    {
      "mimeType": "image/jpeg",
      "name": "12_Default-diffuse-image",
      "uri": "17b596f0-nen.jpg"
    },
    {
      "mimeType": "image/jpeg",
      "name": "Material__78-diffuse-image",
      "uri": "1751db30-(1)-nen.jpg"
    }
  ],
  "materials": [
    {
      "alphaMode": "OPAQUE",
      "doubleSided": true,
      "name": "5_Default",
      "pbrMetallicRoughness": {
        "baseColorFactor": [
          0.588,
          0.588,
          0.588,
          1.0
        ],
        "baseColorTexture": {
          "index": 0,
          "texCoord": 0
        },
        "metallicFactor": 0.0,
        "roughnessFactor": 0.9699476628648295
      }
    },
    {
      "alphaMode": "OPAQUE",
      "doubleSided": true,
      "name": "6_Default",
      "pbrMetallicRoughness": {
        "baseColorFactor": [
          0.588,
          0.588,
          0.588,
          1.0
        ],
        "baseColorTexture": {
          "index": 1,
          "texCoord": 0
        },
        "metallicFactor": 0.0,
        "roughnessFactor": 0.9699476628648295
      }
    },
    {
      "alphaMode": "OPAQUE",
      "doubleSided": true,
      "name": "12_Default",
      "pbrMetallicRoughness": {
        "baseColorFactor": [
          0.588,
          0.588,
          0.588,
          1.0
        ],
        "baseColorTexture": {
          "index": 2,
          "texCoord": 0
        },
        "metallicFactor": 0.0,
        "roughnessFactor": 0.9699476628648295
      }
    },
    {
      "alphaMode": "OPAQUE",
      "doubleSided": true,
      "name": "Material__78",
      "pbrMetallicRoughness": {
        "baseColorFactor": [
          0.588,
          0.588,
          0.588,
          1.0
        ],
        "baseColorTexture": {
          "index": 3,
          "texCoord": 0
        },
        "metallicFactor": 0.0,
        "roughnessFactor": 0.9699476628648295
      }
    }
  ],
  "meshes": [
    {
      "name": "buffer-0-mesh-0",
      "primitives": [
        {
          "attributes": {
            "POSITION": 1,
            "NORMAL": 2,
            "TEXCOORD_0": 3
          },
          "indices": 0,
          "material": 0,
          "mode": 4
        },
        {
          "attributes": {
            "POSITION": 5,
            "NORMAL": 6,
            "TEXCOORD_0": 7
          },
          "indices": 4,
          "material": 1,
          "mode": 4
        },
        {
          "attributes": {
            "POSITION": 9,
            "NORMAL": 10,
            "TEXCOORD_0": 11
          },
          "indices": 8,
          "material": 2,
          "mode": 4
        },
        {
          "attributes": {
            "POSITION": 13,
            "NORMAL": 14,
            "TEXCOORD_0": 15
          },
          "indices": 12,
          "material": 3,
          "mode": 4
        }
      ]
    }
  ],
  "nodes": [
    {
      "mesh": 0,
      "name": "node-0"
    }
  ],
  "samplers": [
    {
      "name": "5_Default-diffuse-sampler",
      "wrapS": 10497,
      "wrapT": 10497
    },
    {
      "name": "6_Default-diffuse-sampler",
      "wrapS": 10497,
      "wrapT": 10497
    },
    {
      "name": "12_Default-diffuse-sampler",
      "wrapS": 10497,
      "wrapT": 10497
    },
    {
      "name": "Material__78-diffuse-sampler",
      "wrapS": 10497,
      "wrapT": 10497
    }
  ],
  "scenes": [
    {
      "name": "scene-0",
      "nodes": [
        0
      ]
    }
  ],
  "textures": [
    {
      "name": "5_Default-diffuse-texture",
      "sampler": 0,
      "source": 0
    },
    {
      "name": "6_Default-diffuse-texture",
      "sampler": 1,
      "source": 1
    },
    {
      "name": "12_Default-diffuse-texture",
      "sampler": 2,
      "source": 2
    },
    {
      "name": "Material__78-diffuse-texture",
      "sampler": 3,
      "source": 3
    }
  ]
}