{
	"accessors" : 
	[
		{
			"bufferView" : 2,
			"byteOffset" : 0,
			"componentType" : 5126,
			"count" : 9946,
			"max" : 
			[
				0.3488648533821106,
				0.5542271137237549,
				0.3488648533821106,
				1
			],
			"min" : 
			[
				0.0697270855307579,
				0.08919350802898407,
				0.06190747767686844,
				1
			],
			"name" : "accessor_color_m0-PolyPaper9_-2986040",
			"type" : "VEC4"
		},
		{
			"bufferView" : 2,
			"byteOffset" : 159136,
			"componentType" : 5126,
			"count" : 9782,
			"max" : 
			[
				1,
				0.6940805315971375,
				0.7226724624633789,
				1
			],
			"min" : 
			[
				0,
				0.1011451631784439,
				0.05459228157997131,
				1
			],
			"name" : "accessor_color_m1-PolyPaper17_-2986038",
			"type" : "VEC4"
		},
		{
			"bufferView" : 2,
			"byteOffset" : 315648,
			"componentType" : 5126,
			"count" : 9962,
			"max" : 
			[
				1,
				0.835527777671814,
				0.3488648533821106,
				1
			],
			"min" : 
			[
				0.0697270855307579,
				0.3488648533821106,
				0.03994716703891754,
				1
			],
			"name" : "accessor_color_m2-PolyPaper22_-2986046",
			"type" : "VEC4"
		},
		{
			"bufferView" : 2,
			"byteOffset" : 475040,
			"componentType" : 5126,
			"count" : 4134,
			"max" : 
			[
				1,
				0.835527777671814,
				0.3488648533821106,
				1
			],
			"min" : 
			[
				0.0697270855307579,
				0.3488648533821106,
				0.03994716703891754,
				1
			],
			"name" : "accessor_color_m3-PolyPaper10_-2986048",
			"type" : "VEC4"
		},
		{
			"bufferView" : 2,
			"byteOffset" : 541184,
			"componentType" : 5126,
			"count" : 742,
			"max" : 
			[
				1,
				1,
				1,
				1
			],
			"min" : 
			[
				1,
				1,
				1,
				1
			],
			"name" : "accessor_color_m4-PolyGem25_-2986042",
			"type" : "VEC4"
		},
		{
			"bufferView" : 2,
			"byteOffset" : 553056,
			"componentType" : 5126,
			"count" : 9782,
			"max" : 
			[
				1,
				0.835527777671814,
				0.3488648533821106,
				1
			],
			"min" : 
			[
				0.0697270855307579,
				0.3250369727611542,
				0.03994716703891754,
				1
			],
			"name" : "accessor_color_m5-PolyPaper10_-2986044",
			"type" : "VEC4"
		},
		{
			"bufferView" : 2,
			"byteOffset" : 709568,
			"componentType" : 5126,
			"count" : 9828,
			"max" : 
			[
				0.6800203323364258,
				0.6800203323364258,
				0.6800203323364258,
				0.2509804
			],
			"min" : 
			[
				0.6800203323364258,
				0.6800203323364258,
				0.6800203323364258,
				0.2509804
			],
			"name" : "accessor_color_m6-PolyGlass24_-2986414",
			"type" : "VEC4"
		},
		{
			"bufferView" : 2,
			"byteOffset" : 866816,
			"componentType" : 5126,
			"count" : 1224,
			"max" : 
			[
				0.6800203323364258,
				0.6800203323364258,
				0.6800203323364258,
				0.2509804
			],
			"min" : 
			[
				0.6800203323364258,
				0.6800203323364258,
				0.6800203323364258,
				0.2509804
			],
			"name" : "accessor_color_m7-PolyGlass24_-2986566",
			"type" : "VEC4"
		},
		{
			"bufferView" : 0,
			"byteOffset" : 0,
			"componentType" : 5123,
			"count" : 10686,
			"max" : 
			[
				9945
			],
			"min" : 
			[
				0
			],
			"name" : "accessor_indices_0_m0-PolyPaper9_-2986040",
			"type" : "SCALAR"
		},
		{
			"bufferView" : 0,
			"byteOffset" : 21372,
			"componentType" : 5123,
			"count" : 11760,
			"max" : 
			[
				9781
			],
			"min" : 
			[
				0
			],
			"name" : "accessor_indices_0_m1-PolyPaper17_-2986038",
			"type" : "SCALAR"
		},
		{
			"bufferView" : 0,
			"byteOffset" : 44892,
			"componentType" : 5123,
			"count" : 11556,
			"max" : 
			[
				9961
			],
			"min" : 
			[
				0
			],
			"name" : "accessor_indices_0_m2-PolyPaper22_-2986046",
			"type" : "SCALAR"
		},
		{
			"bufferView" : 0,
			"byteOffset" : 68004,
			"componentType" : 5123,
			"count" : 5076,
			"max" : 
			[
				4133
			],
			"min" : 
			[
				0
			],
			"name" : "accessor_indices_0_m3-PolyPaper10_-2986048",
			"type" : "SCALAR"
		},
		{
			"bufferView" : 0,
			"byteOffset" : 78156,
			"componentType" : 5123,
			"count" : 1104,
			"max" : 
			[
				741
			],
			"min" : 
			[
				0
			],
			"name" : "accessor_indices_0_m4-PolyGem25_-2986042",
			"type" : "SCALAR"
		},
		{
			"bufferView" : 0,
			"byteOffset" : 80364,
			"componentType" : 5123,
			"count" : 11592,
			"max" : 
			[
				9781
			],
			"min" : 
			[
				0
			],
			"name" : "accessor_indices_0_m5-PolyPaper10_-2986044",
			"type" : "SCALAR"
		},
		{
			"bufferView" : 0,
			"byteOffset" : 103548,
			"componentType" : 5123,
			"count" : 13860,
			"max" : 
			[
				9827
			],
			"min" : 
			[
				0
			],
			"name" : "accessor_indices_0_m6-PolyGlass24_-2986414",
			"type" : "SCALAR"
		},
		{
			"bufferView" : 0,
			"byteOffset" : 131268,
			"componentType" : 5123,
			"count" : 1728,
			"max" : 
			[
				1223
			],
			"min" : 
			[
				0
			],
			"name" : "accessor_indices_0_m7-PolyGlass24_-2986566",
			"type" : "SCALAR"
		},
		{
			"bufferView" : 1,
			"byteOffset" : 119352,
			"componentType" : 5126,
			"count" : 9946,
			"max" : 
			[
				0.99821,
				0.9999008,
				0.9977004
			],
			"min" : 
			[
				-0.9998803000000001,
				-0.9999893,
				-0.9999018
			],
			"name" : "accessor_normal_m0-PolyPaper9_-2986040",
			"type" : "VEC3"
		},
		{
			"bufferView" : 1,
			"byteOffset" : 356088,
			"componentType" : 5126,
			"count" : 9782,
			"max" : 
			[
				0.9997349,
				0.9999536,
				0.9993388
			],
			"min" : 
			[
				-0.9994079,
				-0.9999536,
				-0.9993387
			],
			"name" : "accessor_normal_m1-PolyPaper17_-2986038",
			"type" : "VEC3"
		},
		{
			"bufferView" : 1,
			"byteOffset" : 593016,
			"componentType" : 5126,
			"count" : 9962,
			"max" : 
			[
				0.9997175,
				0.9999691000000001,
				0.9983
			],
			"min" : 
			[
				-0.9999231,
				-0.9999692,
				-0.9996049
			],
			"name" : "accessor_normal_m2-PolyPaper22_-2986046",
			"type" : "VEC3"
		},
		{
			"bufferView" : 1,
			"byteOffset" : 762168,
			"componentType" : 5126,
			"count" : 4134,
			"max" : 
			[
				0.9972221,
				0.9999458,
				0.9990099
			],
			"min" : 
			[
				-0.9837304,
				-0.9998461,
				-0.9997362
			],
			"name" : "accessor_normal_m3-PolyPaper10_-2986048",
			"type" : "VEC3"
		},
		{
			"bufferView" : 1,
			"byteOffset" : 820680,
			"componentType" : 5126,
			"count" : 742,
			"max" : 
			[
				0.9471718,
				0.9999425,
				0.9471529
			],
			"min" : 
			[
				-0.9471719,
				-0.9999425,
				-0.9471527
			],
			"name" : "accessor_normal_m4-PolyGem25_-2986042",
			"type" : "VEC3"
		},
		{
			"bufferView" : 1,
			"byteOffset" : 946968,
			"componentType" : 5126,
			"count" : 9782,
			"max" : 
			[
				0.9999366,
				0.9999683,
				0.9998977
			],
			"min" : 
			[
				-0.999864,
				-0.9999392,
				-0.9996541
			],
			"name" : "accessor_normal_m5-PolyPaper10_-2986044",
			"type" : "VEC3"
		},
		{
			"bufferView" : 1,
			"byteOffset" : 1182288,
			"componentType" : 5126,
			"count" : 9828,
			"max" : 
			[
				0.9997047,
				0.9997921,
				0.9984298
			],
			"min" : 
			[
				-0.9997046000000001,
				-0.9997921,
				-0.9984294
			],
			"name" : "accessor_normal_m6-PolyGlass24_-2986414",
			"type" : "VEC3"
		},
		{
			"bufferView" : 1,
			"byteOffset" : 1314912,
			"componentType" : 5126,
			"count" : 1224,
			"max" : 
			[
				0.9910612,
				0.9959571,
				0.9923615
			],
			"min" : 
			[
				-0.9910607,
				-0.9959571,
				-0.9923613999999999
			],
			"name" : "accessor_normal_m7-PolyGlass24_-2986566",
			"type" : "VEC3"
		},
		{
			"bufferView" : 1,
			"byteOffset" : 0,
			"componentType" : 5126,
			"count" : 9946,
			"max" : 
			[
				1.702421,
				1.26834,
				1.49043
			],
			"min" : 
			[
				-0.6651435,
				0.07577304999999999,
				-2.217731
			],
			"name" : "accessor_position_m0-PolyPaper9_-2986040",
			"type" : "VEC3"
		},
		{
			"bufferView" : 1,
			"byteOffset" : 238704,
			"componentType" : 5126,
			"count" : 9782,
			"max" : 
			[
				2.941534,
				1.106945,
				1.738154
			],
			"min" : 
			[
				-1.455157,
				-0.1257038,
				-3.31395
			],
			"name" : "accessor_position_m1-PolyPaper17_-2986038",
			"type" : "VEC3"
		},
		{
			"bufferView" : 1,
			"byteOffset" : 473472,
			"componentType" : 5126,
			"count" : 9962,
			"max" : 
			[
				2.912563,
				1.140864,
				4.140839
			],
			"min" : 
			[
				0.8392803,
				0.03907982,
				-0.403265
			],
			"name" : "accessor_position_m2-PolyPaper22_-2986046",
			"type" : "VEC3"
		},
		{
			"bufferView" : 1,
			"byteOffset" : 712560,
			"componentType" : 5126,
			"count" : 4134,
			"max" : 
			[
				2.535968,
				0.7678926,
				1.190922
			],
			"min" : 
			[
				-0.4069934,
				0.212068,
				-0.3706897
			],
			"name" : "accessor_position_m3-PolyPaper10_-2986048",
			"type" : "VEC3"
		},
		{
			"bufferView" : 1,
			"byteOffset" : 811776,
			"componentType" : 5126,
			"count" : 742,
			"max" : 
			[
				2.671567,
				0.7807741,
				1.806058
			],
			"min" : 
			[
				-0.5388762,
				0.6651087999999999,
				-0.8871821
			],
			"name" : "accessor_position_m4-PolyGem25_-2986042",
			"type" : "VEC3"
		},
		{
			"bufferView" : 1,
			"byteOffset" : 829584,
			"componentType" : 5126,
			"count" : 9782,
			"max" : 
			[
				3.764179,
				1.052054,
				4.15399
			],
			"min" : 
			[
				-0.5298465999999999,
				0.014338,
				-0.2203
			],
			"name" : "accessor_position_m5-PolyPaper10_-2986044",
			"type" : "VEC3"
		},
		{
			"bufferView" : 1,
			"byteOffset" : 1064352,
			"componentType" : 5126,
			"count" : 9828,
			"max" : 
			[
				2.960242,
				0.7498616,
				1.756284
			],
			"min" : 
			[
				-0.7859689,
				0.01495822,
				-0.9312457
			],
			"name" : "accessor_position_m6-PolyGlass24_-2986414",
			"type" : "VEC3"
		},
		{
			"bufferView" : 1,
			"byteOffset" : 1300224,
			"componentType" : 5126,
			"count" : 1224,
			"max" : 
			[
				0.5303079000000001,
				0.5636330000000001,
				0.5797735000000001
			],
			"min" : 
			[
				0.4484193,
				0.5011714,
				0.5097634
			],
			"name" : "accessor_position_m7-PolyGlass24_-2986566",
			"type" : "VEC3"
		}
	],
	"asset" : 
	{
		"copyright" : "Unknown",
		"generator" : "glTF 1-to-2 Upgrader for Google Blocks",
		"version" : "2.0"
	},
	"bufferViews" : 
	[
		{
			"buffer" : 0,
			"byteLength" : 134724,
			"byteOffset" : 0,
			"name" : "ushortBufferView",
			"target" : 34963
		},
		{
			"buffer" : 0,
			"byteLength" : 1329600,
			"byteOffset" : 134724,
			"byteStride" : 12,
			"name" : "vec3BufferView",
			"target" : 34962
		},
		{
			"buffer" : 0,
			"byteLength" : 886400,
			"byteOffset" : 1464324,
			"byteStride" : 16,
			"name" : "vec4BufferView",
			"target" : 34962
		}
	],
	"buffers" : 
	[
		{
			"byteLength" : 2350724,
			"name" : "model",
			"uri" : "model.bin"
		}
	],
	"materials" : 
	[
		{
			"alphaMode" : "OPAQUE",
			"doubleSided" : false,
			"name" : "BlocksPaper",
			"pbrMetallicRoughness" : 
			{
				"baseColorFactor" : 
				[
					1,
					1,
					1,
					1
				],
				"metallicFactor" : 0,
				"roughnessFactor" : 0.6
			}
		},
		{
			"alphaMode" : "BLEND",
			"doubleSided" : false,
			"name" : "BlocksGlass",
			"pbrMetallicRoughness" : 
			{
				"baseColorFactor" : 
				[
					0.2,
					0.2,
					1,
					0.3
				],
				"metallicFactor" : 1,
				"roughnessFactor" : 0.4
			}
		},
		{
			"alphaMode" : "OPAQUE",
			"doubleSided" : true,
			"name" : "BlocksGem",
			"pbrMetallicRoughness" : 
			{
				"baseColorFactor" : 
				[
					1,
					0.4,
					1,
					1
				],
				"metallicFactor" : 0,
				"roughnessFactor" : 0.1
			}
		}
	],
	"meshes" : 
	[
		{
			"name" : "mesh_m0-PolyPaper9_-2986040",
			"primitives" : 
			[
				{
					"attributes" : 
					{
						"COLOR_0" : 0,
						"NORMAL" : 16,
						"POSITION" : 24
					},
					"indices" : 8,
					"material" : 0,
					"mode" : 4
				}
			]
		},
		{
			"name" : "mesh_m1-PolyPaper17_-2986038",
			"primitives" : 
			[
				{
					"attributes" : 
					{
						"COLOR_0" : 1,
						"NORMAL" : 17,
						"POSITION" : 25
					},
					"indices" : 9,
					"material" : 0,
					"mode" : 4
				}
			]
		},
		{
			"name" : "mesh_m2-PolyPaper22_-2986046",
			"primitives" : 
			[
				{
					"attributes" : 
					{
						"COLOR_0" : 2,
						"NORMAL" : 18,
						"POSITION" : 26
					},
					"indices" : 10,
					"material" : 0,
					"mode" : 4
				}
			]
		},
		{
			"name" : "mesh_m3-PolyPaper10_-2986048",
			"primitives" : 
			[
				{
					"attributes" : 
					{
						"COLOR_0" : 3,
						"NORMAL" : 19,
						"POSITION" : 27
					},
					"indices" : 11,
					"material" : 0,
					"mode" : 4
				}
			]
		},
		{
			"name" : "mesh_m4-PolyGem25_-2986042",
			"primitives" : 
			[
				{
					"attributes" : 
					{
						"COLOR_0" : 4,
						"NORMAL" : 20,
						"POSITION" : 28
					},
					"indices" : 12,
					"material" : 2,
					"mode" : 4
				}
			]
		},
		{
			"name" : "mesh_m5-PolyPaper10_-2986044",
			"primitives" : 
			[
				{
					"attributes" : 
					{
						"COLOR_0" : 5,
						"NORMAL" : 21,
						"POSITION" : 29
					},
					"indices" : 13,
					"material" : 0,
					"mode" : 4
				}
			]
		},
		{
			"name" : "mesh_m6-PolyGlass24_-2986414",
			"primitives" : 
			[
				{
					"attributes" : 
					{
						"COLOR_0" : 6,
						"NORMAL" : 22,
						"POSITION" : 30
					},
					"indices" : 14,
					"material" : 1,
					"mode" : 4
				}
			]
		},
		{
			"name" : "mesh_m7-PolyGlass24_-2986566",
			"primitives" : 
			[
				{
					"attributes" : 
					{
						"COLOR_0" : 7,
						"NORMAL" : 23,
						"POSITION" : 31
					},
					"indices" : 15,
					"material" : 1,
					"mode" : 4
				}
			]
		}
	],
	"nodes" : 
	[
		{
			"matrix" : 
			[
				1,
				0,
				0,
				0,
				0,
				1,
				0,
				0,
				0,
				0,
				1,
				0,
				0,
				0,
				0,
				1
			],
			"mesh" : 0,
			"name" : "node_MeshObject-100006784-PolyPaper9"
		},
		{
			"matrix" : 
			[
				1,
				0,
				0,
				0,
				0,
				1,
				0,
				0,
				0,
				0,
				1,
				0,
				0,
				0,
				0,
				1
			],
			"mesh" : 1,
			"name" : "node_MeshObject-1021130880-PolyPaper17"
		},
		{
			"matrix" : 
			[
				1,
				0,
				0,
				0,
				0,
				1,
				0,
				0,
				0,
				0,
				1,
				0,
				0,
				0,
				0,
				1
			],
			"mesh" : 7,
			"name" : "node_MeshObject-1300061376-PolyGlass24"
		},
		{
			"matrix" : 
			[
				1,
				0,
				0,
				0,
				0,
				1,
				0,
				0,
				0,
				0,
				1,
				0,
				0,
				0,
				0,
				1
			],
			"mesh" : 6,
			"name" : "node_MeshObject-618726848-PolyGlass24"
		},
		{
			"matrix" : 
			[
				1,
				0,
				0,
				0,
				0,
				1,
				0,
				0,
				0,
				0,
				1,
				0,
				0,
				0,
				0,
				1
			],
			"mesh" : 2,
			"name" : "node_MeshObject1456153408-PolyPaper22"
		},
		{
			"matrix" : 
			[
				1,
				0,
				0,
				0,
				0,
				1,
				0,
				0,
				0,
				0,
				1,
				0,
				0,
				0,
				0,
				1
			],
			"mesh" : 3,
			"name" : "node_MeshObject1974873472-PolyPaper10"
		},
		{
			"matrix" : 
			[
				1,
				0,
				0,
				0,
				0,
				1,
				0,
				0,
				0,
				0,
				1,
				0,
				0,
				0,
				0,
				1
			],
			"mesh" : 4,
			"name" : "node_MeshObject418713280-PolyGem25"
		},
		{
			"matrix" : 
			[
				1,
				0,
				0,
				0,
				0,
				1,
				0,
				0,
				0,
				0,
				1,
				0,
				0,
				0,
				0,
				1
			],
			"mesh" : 5,
			"name" : "node_MeshObject937433344-PolyPaper10"
		}
	],
	"scene" : 0,
	"scenes" : 
	[
		{
			"extras" : {},
			"name" : "defaultScene",
			"nodes" : 
			[
				0,
				1,
				4,
				5,
				6,
				7,
				3,
				2
			]
		}
	]
}