{
	"accessors" : 
	[
		{
			"bufferView" : 2,
			"byteOffset" : 0,
			"componentType" : 5126,
			"count" : 9942,
			"max" : 
			[
				1,
				1,
				1,
				1
			],
			"min" : 
			[
				0.006584956776350737,
				0.006584956776350737,
				0.006584956776350737,
				1
			],
			"name" : "accessor_color_m0-PolyPaper21_-1230960",
			"type" : "VEC4"
		},
		{
			"bufferView" : 2,
			"byteOffset" : 159072,
			"componentType" : 5126,
			"count" : 7436,
			"max" : 
			[
				1,
				1,
				1,
				1
			],
			"min" : 
			[
				5.692175545846112e-05,
				0.08919350802898407,
				0.06190747767686844,
				1
			],
			"name" : "accessor_color_m1-PolyPaper18_-1230964",
			"type" : "VEC4"
		},
		{
			"bufferView" : 2,
			"byteOffset" : 278048,
			"componentType" : 5126,
			"count" : 9964,
			"max" : 
			[
				1,
				1,
				1,
				1
			],
			"min" : 
			[
				0.006584956776350737,
				0.006584956776350737,
				0.006584956776350737,
				1
			],
			"name" : "accessor_color_m2-PolyPaper20_-1230962",
			"type" : "VEC4"
		},
		{
			"bufferView" : 0,
			"byteOffset" : 0,
			"componentType" : 5123,
			"count" : 15084,
			"max" : 
			[
				9941
			],
			"min" : 
			[
				0
			],
			"name" : "accessor_indices_0_m0-PolyPaper21_-1230960",
			"type" : "SCALAR"
		},
		{
			"bufferView" : 0,
			"byteOffset" : 30168,
			"componentType" : 5123,
			"count" : 11028,
			"max" : 
			[
				7435
			],
			"min" : 
			[
				0
			],
			"name" : "accessor_indices_0_m1-PolyPaper18_-1230964",
			"type" : "SCALAR"
		},
		{
			"bufferView" : 0,
			"byteOffset" : 52224,
			"componentType" : 5123,
			"count" : 14736,
			"max" : 
			[
				9963
			],
			"min" : 
			[
				0
			],
			"name" : "accessor_indices_0_m2-PolyPaper20_-1230962",
			"type" : "SCALAR"
		},
		{
			"bufferView" : 1,
			"byteOffset" : 119304,
			"componentType" : 5126,
			"count" : 9942,
			"max" : 
			[
				0.9998645,
				0.9994455,
				0.9984614000000001
			],
			"min" : 
			[
				-0.9998645,
				-0.9996697,
				-0.9984575999999999
			],
			"name" : "accessor_normal_m0-PolyPaper21_-1230960",
			"type" : "VEC3"
		},
		{
			"bufferView" : 1,
			"byteOffset" : 327840,
			"componentType" : 5126,
			"count" : 7436,
			"max" : 
			[
				0.9973795,
				0.9988837,
				0.9988304
			],
			"min" : 
			[
				-0.9973794,
				-0.9987859,
				-0.9988306
			],
			"name" : "accessor_normal_m1-PolyPaper18_-1230964",
			"type" : "VEC3"
		},
		{
			"bufferView" : 1,
			"byteOffset" : 536640,
			"componentType" : 5126,
			"count" : 9964,
			"max" : 
			[
				0.9997258999999999,
				0.9983937000000001,
				0.9996259
			],
			"min" : 
			[
				-0.9999637,
				-0.997128,
				-0.9996102
			],
			"name" : "accessor_normal_m2-PolyPaper20_-1230962",
			"type" : "VEC3"
		},
		{
			"bufferView" : 1,
			"byteOffset" : 0,
			"componentType" : 5126,
			"count" : 9942,
			"max" : 
			[
				0.1612597,
				1.996041,
				-0.1146224
			],
			"min" : 
			[
				-0.4438609,
				1.511924,
				-0.5437196
			],
			"name" : "accessor_position_m0-PolyPaper21_-1230960",
			"type" : "VEC3"
		},
		{
			"bufferView" : 1,
			"byteOffset" : 238608,
			"componentType" : 5126,
			"count" : 7436,
			"max" : 
			[
				0.1552909,
				1.616164,
				-0.1607718
			],
			"min" : 
			[
				-0.4547823,
				0.3094702,
				-0.7184203
			],
			"name" : "accessor_position_m1-PolyPaper18_-1230964",
			"type" : "VEC3"
		},
		{
			"bufferView" : 1,
			"byteOffset" : 417072,
			"componentType" : 5126,
			"count" : 9964,
			"max" : 
			[
				0.1897924,
				1.984581,
				-0.1635605
			],
			"min" : 
			[
				-0.4421624,
				0.9667238,
				-0.686519
			],
			"name" : "accessor_position_m2-PolyPaper20_-1230962",
			"type" : "VEC3"
		}
	],
	"asset" : 
	{
		"copyright" : "Unknown",
		"generator" : "glTF 1-to-2 Upgrader for Google Blocks",
		"version" : "2.0"
	},
	"bufferViews" : 
	[
		{
			"buffer" : 0,
			"byteLength" : 81696,
			"byteOffset" : 0,
			"name" : "ushortBufferView",
			"target" : 34963
		},
		{
			"buffer" : 0,
			"byteLength" : 656208,
			"byteOffset" : 81696,
			"byteStride" : 12,
			"name" : "vec3BufferView",
			"target" : 34962
		},
		{
			"buffer" : 0,
			"byteLength" : 437472,
			"byteOffset" : 737904,
			"byteStride" : 16,
			"name" : "vec4BufferView",
			"target" : 34962
		}
	],
	"buffers" : 
	[
		{
			"byteLength" : 1175376,
			"name" : "model",
			"uri" : "model.bin"
		}
	],
	"materials" : 
	[
		{
			"alphaMode" : "OPAQUE",
			"doubleSided" : false,
			"name" : "BlocksPaper",
			"pbrMetallicRoughness" : 
			{
				"baseColorFactor" : 
				[
					1,
					1,
					1,
					1
				],
				"metallicFactor" : 0,
				"roughnessFactor" : 0.6
			}
		},
		{
			"alphaMode" : "BLEND",
			"doubleSided" : false,
			"name" : "BlocksGlass",
			"pbrMetallicRoughness" : 
			{
				"baseColorFactor" : 
				[
					0.2,
					0.2,
					1,
					0.3
				],
				"metallicFactor" : 1,
				"roughnessFactor" : 0.4
			}
		},
		{
			"alphaMode" : "OPAQUE",
			"doubleSided" : true,
			"name" : "BlocksGem",
			"pbrMetallicRoughness" : 
			{
				"baseColorFactor" : 
				[
					1,
					0.4,
					1,
					1
				],
				"metallicFactor" : 0,
				"roughnessFactor" : 0.1
			}
		}
	],
	"meshes" : 
	[
		{
			"name" : "mesh_m0-PolyPaper21_-1230960",
			"primitives" : 
			[
				{
					"attributes" : 
					{
						"COLOR_0" : 0,
						"NORMAL" : 6,
						"POSITION" : 9
					},
					"indices" : 3,
					"material" : 0,
					"mode" : 4
				}
			]
		},
		{
			"name" : "mesh_m1-PolyPaper18_-1230964",
			"primitives" : 
			[
				{
					"attributes" : 
					{
						"COLOR_0" : 1,
						"NORMAL" : 7,
						"POSITION" : 10
					},
					"indices" : 4,
					"material" : 0,
					"mode" : 4
				}
			]
		},
		{
			"name" : "mesh_m2-PolyPaper20_-1230962",
			"primitives" : 
			[
				{
					"attributes" : 
					{
						"COLOR_0" : 2,
						"NORMAL" : 8,
						"POSITION" : 11
					},
					"indices" : 5,
					"material" : 0,
					"mode" : 4
				}
			]
		}
	],
	"nodes" : 
	[
		{
			"matrix" : 
			[
				1,
				0,
				0,
				0,
				0,
				1,
				0,
				0,
				0,
				0,
				1,
				0,
				0,
				0,
				0,
				1
			],
			"mesh" : 1,
			"name" : "node_MeshObject-1600296064-PolyPaper18"
		},
		{
			"matrix" : 
			[
				1,
				0,
				0,
				0,
				0,
				1,
				0,
				0,
				0,
				0,
				1,
				0,
				0,
				0,
				0,
				1
			],
			"mesh" : 0,
			"name" : "node_MeshObject-791162432-PolyPaper21"
		},
		{
			"matrix" : 
			[
				1,
				0,
				0,
				0,
				0,
				1,
				0,
				0,
				0,
				0,
				1,
				0,
				0,
				0,
				0,
				1
			],
			"mesh" : 2,
			"name" : "node_MeshObject619790976-PolyPaper20"
		}
	],
	"scene" : 0,
	"scenes" : 
	[
		{
			"extras" : {},
			"name" : "defaultScene",
			"nodes" : 
			[
				1,
				0,
				2
			]
		}
	]
}