{
	"accessors" : 
	[
		{
			"bufferView" : 2,
			"byteOffset" : 0,
			"componentType" : 5126,
			"count" : 8224,
			"max" : 
			[
				1,
				1,
				1,
				1
			],
			"min" : 
			[
				0,
				0.006584956776350737,
				0.006584956776350737,
				1
			],
			"name" : "accessor_color_m0-PolyPaper19_-277164",
			"type" : "VEC4"
		},
		{
			"bufferView" : 2,
			"byteOffset" : 131584,
			"componentType" : 5126,
			"count" : 9950,
			"max" : 
			[
				1,
				1,
				1,
				1
			],
			"min" : 
			[
				0,
				0.08919350802898407,
				0.05459228157997131,
				1
			],
			"name" : "accessor_color_m1-PolyPaper21_-274524",
			"type" : "VEC4"
		},
		{
			"bufferView" : 0,
			"byteOffset" : 0,
			"componentType" : 5123,
			"count" : 11514,
			"max" : 
			[
				8223
			],
			"min" : 
			[
				0
			],
			"name" : "accessor_indices_0_m0-PolyPaper19_-277164",
			"type" : "SCALAR"
		},
		{
			"bufferView" : 0,
			"byteOffset" : 23028,
			"componentType" : 5123,
			"count" : 13818,
			"max" : 
			[
				9949
			],
			"min" : 
			[
				0
			],
			"name" : "accessor_indices_0_m1-PolyPaper21_-274524",
			"type" : "SCALAR"
		},
		{
			"bufferView" : 1,
			"byteOffset" : 98688,
			"componentType" : 5126,
			"count" : 8224,
			"max" : 
			[
				0.9980792000000001,
				0.9999167,
				0.9990295
			],
			"min" : 
			[
				-0.9997622,
				-0.9999166,
				-0.9990295
			],
			"name" : "accessor_normal_m0-PolyPaper19_-277164",
			"type" : "VEC3"
		},
		{
			"bufferView" : 1,
			"byteOffset" : 316776,
			"componentType" : 5126,
			"count" : 9950,
			"max" : 
			[
				0.9999967,
				0.9991013,
				0.9997911
			],
			"min" : 
			[
				-0.9999967,
				-0.9991013,
				-0.999791
			],
			"name" : "accessor_normal_m1-PolyPaper21_-274524",
			"type" : "VEC3"
		},
		{
			"bufferView" : 1,
			"byteOffset" : 0,
			"componentType" : 5126,
			"count" : 8224,
			"max" : 
			[
				0.2861404,
				2.913406,
				1.452517
			],
			"min" : 
			[
				-1.229851,
				0.07713634,
				0.5362683
			],
			"name" : "accessor_position_m0-PolyPaper19_-277164",
			"type" : "VEC3"
		},
		{
			"bufferView" : 1,
			"byteOffset" : 197376,
			"componentType" : 5126,
			"count" : 9950,
			"max" : 
			[
				0.3969928,
				2.819052,
				1.442166
			],
			"min" : 
			[
				-1.027266,
				0.0200418,
				0.3853148
			],
			"name" : "accessor_position_m1-PolyPaper21_-274524",
			"type" : "VEC3"
		}
	],
	"asset" : 
	{
		"copyright" : "Unknown",
		"generator" : "glTF 1-to-2 Upgrader for Google Blocks",
		"version" : "2.0"
	},
	"bufferViews" : 
	[
		{
			"buffer" : 0,
			"byteLength" : 50664,
			"byteOffset" : 0,
			"name" : "ushortBufferView",
			"target" : 34963
		},
		{
			"buffer" : 0,
			"byteLength" : 436176,
			"byteOffset" : 50664,
			"byteStride" : 12,
			"name" : "vec3BufferView",
			"target" : 34962
		},
		{
			"buffer" : 0,
			"byteLength" : 290784,
			"byteOffset" : 486840,
			"byteStride" : 16,
			"name" : "vec4BufferView",
			"target" : 34962
		}
	],
	"buffers" : 
	[
		{
			"byteLength" : 777624,
			"name" : "model",
			"uri" : "model.bin"
		}
	],
	"materials" : 
	[
		{
			"alphaMode" : "OPAQUE",
			"doubleSided" : false,
			"name" : "BlocksPaper",
			"pbrMetallicRoughness" : 
			{
				"baseColorFactor" : 
				[
					1,
					1,
					1,
					1
				],
				"metallicFactor" : 0,
				"roughnessFactor" : 0.6
			}
		},
		{
			"alphaMode" : "BLEND",
			"doubleSided" : false,
			"name" : "BlocksGlass",
			"pbrMetallicRoughness" : 
			{
				"baseColorFactor" : 
				[
					0.2,
					0.2,
					1,
					0.3
				],
				"metallicFactor" : 1,
				"roughnessFactor" : 0.4
			}
		},
		{
			"alphaMode" : "OPAQUE",
			"doubleSided" : true,
			"name" : "BlocksGem",
			"pbrMetallicRoughness" : 
			{
				"baseColorFactor" : 
				[
					1,
					0.4,
					1,
					1
				],
				"metallicFactor" : 0,
				"roughnessFactor" : 0.1
			}
		}
	],
	"meshes" : 
	[
		{
			"name" : "mesh_m0-PolyPaper19_-277164",
			"primitives" : 
			[
				{
					"attributes" : 
					{
						"COLOR_0" : 0,
						"NORMAL" : 4,
						"POSITION" : 6
					},
					"indices" : 2,
					"material" : 0,
					"mode" : 4
				}
			]
		},
		{
			"name" : "mesh_m1-PolyPaper21_-274524",
			"primitives" : 
			[
				{
					"attributes" : 
					{
						"COLOR_0" : 1,
						"NORMAL" : 5,
						"POSITION" : 7
					},
					"indices" : 3,
					"material" : 0,
					"mode" : 4
				}
			]
		}
	],
	"nodes" : 
	[
		{
			"matrix" : 
			[
				1,
				0,
				0,
				0,
				0,
				1,
				0,
				0,
				0,
				0,
				1,
				0,
				0,
				0,
				0,
				1
			],
			"mesh" : 1,
			"name" : "node_MeshObject144264384-PolyPaper21"
		},
		{
			"matrix" : 
			[
				1,
				0,
				0,
				0,
				0,
				1,
				0,
				0,
				0,
				0,
				1,
				0,
				0,
				0,
				0,
				1
			],
			"mesh" : 0,
			"name" : "node_MeshObject444036416-PolyPaper19"
		}
	],
	"scene" : 0,
	"scenes" : 
	[
		{
			"extras" : {},
			"name" : "defaultScene",
			"nodes" : 
			[
				1,
				0
			]
		}
	]
}