{
	"accessors" : 
	[
		{
			"bufferView" : 2,
			"byteOffset" : 0,
			"componentType" : 5126,
			"count" : 5110,
			"max" : 
			[
				1,
				1,
				1,
				1
			],
			"min" : 
			[
				0.006584956776350737,
				0.006584956776350737,
				0,
				1
			],
			"name" : "accessor_color_m0-PolyPaper12_-910144",
			"type" : "VEC4"
		},
		{
			"bufferView" : 2,
			"byteOffset" : 81760,
			"componentType" : 5126,
			"count" : 9740,
			"max" : 
			[
				1,
				0.835527777671814,
				0.7893137335777283,
				1
			],
			"min" : 
			[
				5.692175545846112e-05,
				0.006584956776350737,
				0.006584956776350737,
				1
			],
			"name" : "accessor_color_m1-PolyPaper19_-896956",
			"type" : "VEC4"
		},
		{
			"bufferView" : 2,
			"byteOffset" : 1437696,
			"componentType" : 5126,
			"count" : 9988,
			"max" : 
			[
				1,
				1,
				1,
				1
			],
			"min" : 
			[
				5.692175545846112e-05,
				0.006584956776350737,
				0,
				1
			],
			"name" : "accessor_color_m10-PolyPaper13_-910140",
			"type" : "VEC4"
		},
		{
			"bufferView" : 2,
			"byteOffset" : 237600,
			"componentType" : 5126,
			"count" : 9756,
			"max" : 
			[
				1,
				1,
				1,
				1
			],
			"min" : 
			[
				0.006584956776350737,
				0.006584956776350737,
				0,
				1
			],
			"name" : "accessor_color_m2-PolyPaper13_-896958",
			"type" : "VEC4"
		},
		{
			"bufferView" : 2,
			"byteOffset" : 393696,
			"componentType" : 5126,
			"count" : 9958,
			"max" : 
			[
				1,
				1,
				1,
				1
			],
			"min" : 
			[
				0.006584956776350737,
				0.006584956776350737,
				0,
				1
			],
			"name" : "accessor_color_m3-PolyPaper23_-896960",
			"type" : "VEC4"
		},
		{
			"bufferView" : 2,
			"byteOffset" : 553024,
			"componentType" : 5126,
			"count" : 9964,
			"max" : 
			[
				1,
				1,
				1,
				1
			],
			"min" : 
			[
				5.692175545846112e-05,
				0.006584956776350737,
				0,
				1
			],
			"name" : "accessor_color_m4-PolyPaper22_-896962",
			"type" : "VEC4"
		},
		{
			"bufferView" : 2,
			"byteOffset" : 712448,
			"componentType" : 5126,
			"count" : 9896,
			"max" : 
			[
				1,
				1,
				1,
				1
			],
			"min" : 
			[
				0.006584956776350737,
				0.006584956776350737,
				0,
				1
			],
			"name" : "accessor_color_m5-PolyPaper22_-896964",
			"type" : "VEC4"
		},
		{
			"bufferView" : 2,
			"byteOffset" : 870784,
			"componentType" : 5126,
			"count" : 9938,
			"max" : 
			[
				1,
				1,
				1,
				1
			],
			"min" : 
			[
				0.006584956776350737,
				0.006584956776350737,
				0,
				1
			],
			"name" : "accessor_color_m6-PolyPaper22_-896966",
			"type" : "VEC4"
		},
		{
			"bufferView" : 2,
			"byteOffset" : 1029792,
			"componentType" : 5126,
			"count" : 9780,
			"max" : 
			[
				1,
				1,
				1,
				1
			],
			"min" : 
			[
				0.006584956776350737,
				0.006584956776350737,
				0,
				1
			],
			"name" : "accessor_color_m7-PolyPaper22_-896968",
			"type" : "VEC4"
		},
		{
			"bufferView" : 2,
			"byteOffset" : 1186272,
			"componentType" : 5126,
			"count" : 9924,
			"max" : 
			[
				1,
				1,
				1,
				1
			],
			"min" : 
			[
				0.006584956776350737,
				0.006584956776350737,
				0,
				1
			],
			"name" : "accessor_color_m8-PolyPaper23_-896970",
			"type" : "VEC4"
		},
		{
			"bufferView" : 2,
			"byteOffset" : 1345056,
			"componentType" : 5126,
			"count" : 5790,
			"max" : 
			[
				1,
				1,
				1,
				1
			],
			"min" : 
			[
				1,
				1,
				1,
				1
			],
			"name" : "accessor_color_m9-PolyGem25_-910142",
			"type" : "VEC4"
		},
		{
			"bufferView" : 0,
			"byteOffset" : 0,
			"componentType" : 5123,
			"count" : 6438,
			"max" : 
			[
				5109
			],
			"min" : 
			[
				0
			],
			"name" : "accessor_indices_0_m0-PolyPaper12_-910144",
			"type" : "SCALAR"
		},
		{
			"bufferView" : 0,
			"byteOffset" : 12876,
			"componentType" : 5123,
			"count" : 12246,
			"max" : 
			[
				9739
			],
			"min" : 
			[
				0
			],
			"name" : "accessor_indices_0_m1-PolyPaper19_-896956",
			"type" : "SCALAR"
		},
		{
			"bufferView" : 0,
			"byteOffset" : 248856,
			"componentType" : 5123,
			"count" : 14418,
			"max" : 
			[
				9987
			],
			"min" : 
			[
				0
			],
			"name" : "accessor_indices_0_m10-PolyPaper13_-910140",
			"type" : "SCALAR"
		},
		{
			"bufferView" : 0,
			"byteOffset" : 37368,
			"componentType" : 5123,
			"count" : 13740,
			"max" : 
			[
				9755
			],
			"min" : 
			[
				0
			],
			"name" : "accessor_indices_0_m2-PolyPaper13_-896958",
			"type" : "SCALAR"
		},
		{
			"bufferView" : 0,
			"byteOffset" : 64848,
			"componentType" : 5123,
			"count" : 14148,
			"max" : 
			[
				9957
			],
			"min" : 
			[
				0
			],
			"name" : "accessor_indices_0_m3-PolyPaper23_-896960",
			"type" : "SCALAR"
		},
		{
			"bufferView" : 0,
			"byteOffset" : 93144,
			"componentType" : 5123,
			"count" : 14016,
			"max" : 
			[
				9963
			],
			"min" : 
			[
				0
			],
			"name" : "accessor_indices_0_m4-PolyPaper22_-896962",
			"type" : "SCALAR"
		},
		{
			"bufferView" : 0,
			"byteOffset" : 121176,
			"componentType" : 5123,
			"count" : 14076,
			"max" : 
			[
				9895
			],
			"min" : 
			[
				0
			],
			"name" : "accessor_indices_0_m5-PolyPaper22_-896964",
			"type" : "SCALAR"
		},
		{
			"bufferView" : 0,
			"byteOffset" : 149328,
			"componentType" : 5123,
			"count" : 14040,
			"max" : 
			[
				9937
			],
			"min" : 
			[
				0
			],
			"name" : "accessor_indices_0_m6-PolyPaper22_-896966",
			"type" : "SCALAR"
		},
		{
			"bufferView" : 0,
			"byteOffset" : 177408,
			"componentType" : 5123,
			"count" : 13608,
			"max" : 
			[
				9779
			],
			"min" : 
			[
				0
			],
			"name" : "accessor_indices_0_m7-PolyPaper22_-896968",
			"type" : "SCALAR"
		},
		{
			"bufferView" : 0,
			"byteOffset" : 204624,
			"componentType" : 5123,
			"count" : 13944,
			"max" : 
			[
				9923
			],
			"min" : 
			[
				0
			],
			"name" : "accessor_indices_0_m8-PolyPaper23_-896970",
			"type" : "SCALAR"
		},
		{
			"bufferView" : 0,
			"byteOffset" : 232512,
			"componentType" : 5123,
			"count" : 8172,
			"max" : 
			[
				5789
			],
			"min" : 
			[
				0
			],
			"name" : "accessor_indices_0_m9-PolyGem25_-910142",
			"type" : "SCALAR"
		},
		{
			"bufferView" : 1,
			"byteOffset" : 61320,
			"componentType" : 5126,
			"count" : 5110,
			"max" : 
			[
				1,
				1,
				1
			],
			"min" : 
			[
				-1,
				-1,
				-1
			],
			"name" : "accessor_normal_m0-PolyPaper12_-910144",
			"type" : "VEC3"
		},
		{
			"bufferView" : 1,
			"byteOffset" : 239520,
			"componentType" : 5126,
			"count" : 9740,
			"max" : 
			[
				1,
				1,
				1
			],
			"min" : 
			[
				-1,
				-1,
				-1
			],
			"name" : "accessor_normal_m1-PolyPaper19_-896956",
			"type" : "VEC3"
		},
		{
			"bufferView" : 1,
			"byteOffset" : 2276400,
			"componentType" : 5126,
			"count" : 9988,
			"max" : 
			[
				1,
				1,
				1
			],
			"min" : 
			[
				-1,
				-1,
				-1
			],
			"name" : "accessor_normal_m10-PolyPaper13_-910140",
			"type" : "VEC3"
		},
		{
			"bufferView" : 1,
			"byteOffset" : 473472,
			"componentType" : 5126,
			"count" : 9756,
			"max" : 
			[
				1,
				1,
				1
			],
			"min" : 
			[
				-1,
				-1,
				-1
			],
			"name" : "accessor_normal_m2-PolyPaper13_-896958",
			"type" : "VEC3"
		},
		{
			"bufferView" : 1,
			"byteOffset" : 710040,
			"componentType" : 5126,
			"count" : 9958,
			"max" : 
			[
				1,
				1,
				1
			],
			"min" : 
			[
				-1,
				-1,
				-1
			],
			"name" : "accessor_normal_m3-PolyPaper23_-896960",
			"type" : "VEC3"
		},
		{
			"bufferView" : 1,
			"byteOffset" : 949104,
			"componentType" : 5126,
			"count" : 9964,
			"max" : 
			[
				1,
				1,
				1
			],
			"min" : 
			[
				-1,
				-1,
				-1
			],
			"name" : "accessor_normal_m4-PolyPaper22_-896962",
			"type" : "VEC3"
		},
		{
			"bufferView" : 1,
			"byteOffset" : 1187424,
			"componentType" : 5126,
			"count" : 9896,
			"max" : 
			[
				1,
				1,
				1
			],
			"min" : 
			[
				-1,
				-1,
				-1
			],
			"name" : "accessor_normal_m5-PolyPaper22_-896964",
			"type" : "VEC3"
		},
		{
			"bufferView" : 1,
			"byteOffset" : 1425432,
			"componentType" : 5126,
			"count" : 9938,
			"max" : 
			[
				1,
				1,
				1
			],
			"min" : 
			[
				-1,
				-1,
				-1
			],
			"name" : "accessor_normal_m6-PolyPaper22_-896966",
			"type" : "VEC3"
		},
		{
			"bufferView" : 1,
			"byteOffset" : 1662048,
			"componentType" : 5126,
			"count" : 9780,
			"max" : 
			[
				1,
				1,
				1
			],
			"min" : 
			[
				-1,
				-1,
				-1
			],
			"name" : "accessor_normal_m7-PolyPaper22_-896968",
			"type" : "VEC3"
		},
		{
			"bufferView" : 1,
			"byteOffset" : 1898496,
			"componentType" : 5126,
			"count" : 9924,
			"max" : 
			[
				1,
				1,
				1
			],
			"min" : 
			[
				-1,
				-1,
				-1
			],
			"name" : "accessor_normal_m8-PolyPaper23_-896970",
			"type" : "VEC3"
		},
		{
			"bufferView" : 1,
			"byteOffset" : 2087064,
			"componentType" : 5126,
			"count" : 5790,
			"max" : 
			[
				0.9659281,
				0.9659286,
				0.9837454
			],
			"min" : 
			[
				-0.9659281,
				-0.9659286,
				-0.9837454
			],
			"name" : "accessor_normal_m9-PolyGem25_-910142",
			"type" : "VEC3"
		},
		{
			"bufferView" : 1,
			"byteOffset" : 0,
			"componentType" : 5126,
			"count" : 5110,
			"max" : 
			[
				0.341612,
				2.626967,
				3.381525
			],
			"min" : 
			[
				-2.077414,
				1.104055,
				-2.58848
			],
			"name" : "accessor_position_m0-PolyPaper12_-910144",
			"type" : "VEC3"
		},
		{
			"bufferView" : 1,
			"byteOffset" : 122640,
			"componentType" : 5126,
			"count" : 9740,
			"max" : 
			[
				-0.816234,
				1.392826,
				3.134195
			],
			"min" : 
			[
				-1.941829,
				1.078443,
				-2.308024
			],
			"name" : "accessor_position_m1-PolyPaper19_-896956",
			"type" : "VEC3"
		},
		{
			"bufferView" : 1,
			"byteOffset" : 2156544,
			"componentType" : 5126,
			"count" : 9988,
			"max" : 
			[
				0.7273899,
				2.603634,
				3.384025
			],
			"min" : 
			[
				-2.077384,
				1.035941,
				-2.619981
			],
			"name" : "accessor_position_m10-PolyPaper13_-910140",
			"type" : "VEC3"
		},
		{
			"bufferView" : 1,
			"byteOffset" : 356400,
			"componentType" : 5126,
			"count" : 9756,
			"max" : 
			[
				-0.8082446,
				1.465982,
				-0.009477876
			],
			"min" : 
			[
				-1.249527,
				1.09096,
				-2.282015
			],
			"name" : "accessor_position_m2-PolyPaper13_-896958",
			"type" : "VEC3"
		},
		{
			"bufferView" : 1,
			"byteOffset" : 590544,
			"componentType" : 5126,
			"count" : 9958,
			"max" : 
			[
				0.06074497,
				1.480018,
				0.07599466000000001
			],
			"min" : 
			[
				-1.241485,
				1.072456,
				-1.986039
			],
			"name" : "accessor_position_m3-PolyPaper23_-896960",
			"type" : "VEC3"
		},
		{
			"bufferView" : 1,
			"byteOffset" : 829536,
			"componentType" : 5126,
			"count" : 9964,
			"max" : 
			[
				0.3935176,
				1.470034,
				3.134201
			],
			"min" : 
			[
				-1.791813,
				1.068483,
				-1.41196
			],
			"name" : "accessor_position_m4-PolyPaper22_-896962",
			"type" : "VEC3"
		},
		{
			"bufferView" : 1,
			"byteOffset" : 1068672,
			"componentType" : 5126,
			"count" : 9896,
			"max" : 
			[
				-0.8587563,
				1.455985,
				1.552039
			],
			"min" : 
			[
				-1.249514,
				1.06848,
				0.9520136
			],
			"name" : "accessor_position_m5-PolyPaper22_-896964",
			"type" : "VEC3"
		},
		{
			"bufferView" : 1,
			"byteOffset" : 1306176,
			"componentType" : 5126,
			"count" : 9938,
			"max" : 
			[
				-0.8082837,
				1.469988,
				3.335967
			],
			"min" : 
			[
				-1.24152,
				1.082487,
				1.325448
			],
			"name" : "accessor_position_m6-PolyPaper22_-896966",
			"type" : "VEC3"
		},
		{
			"bufferView" : 1,
			"byteOffset" : 1544688,
			"componentType" : 5126,
			"count" : 9780,
			"max" : 
			[
				0.3487911,
				1.480021,
				3.310032
			],
			"min" : 
			[
				-1.189577,
				1.078495,
				0.2460304
			],
			"name" : "accessor_position_m7-PolyPaper22_-896968",
			"type" : "VEC3"
		},
		{
			"bufferView" : 1,
			"byteOffset" : 1779408,
			"componentType" : 5126,
			"count" : 9924,
			"max" : 
			[
				0.4034945,
				1.466029,
				2.438037
			],
			"min" : 
			[
				-0.03776173,
				1.090964,
				0.08397966
			],
			"name" : "accessor_position_m8-PolyPaper23_-896970",
			"type" : "VEC3"
		},
		{
			"bufferView" : 1,
			"byteOffset" : 2017584,
			"componentType" : 5126,
			"count" : 5790,
			"max" : 
			[
				0.2947985,
				2.497078,
				3.37104
			],
			"min" : 
			[
				-1.713359,
				1.17367,
				-2.607038
			],
			"name" : "accessor_position_m9-PolyGem25_-910142",
			"type" : "VEC3"
		}
	],
	"asset" : 
	{
		"copyright" : "Unknown",
		"generator" : "glTF 1-to-2 Upgrader for Google Blocks",
		"version" : "2.0"
	},
	"bufferViews" : 
	[
		{
			"buffer" : 0,
			"byteLength" : 277692,
			"byteOffset" : 0,
			"name" : "ushortBufferView",
			"target" : 34963
		},
		{
			"buffer" : 0,
			"byteLength" : 2396256,
			"byteOffset" : 277692,
			"byteStride" : 12,
			"name" : "vec3BufferView",
			"target" : 34962
		},
		{
			"buffer" : 0,
			"byteLength" : 1597504,
			"byteOffset" : 2673948,
			"byteStride" : 16,
			"name" : "vec4BufferView",
			"target" : 34962
		}
	],
	"buffers" : 
	[
		{
			"byteLength" : 4271452,
			"name" : "model",
			"uri" : "model.bin"
		}
	],
	"materials" : 
	[
		{
			"alphaMode" : "OPAQUE",
			"doubleSided" : false,
			"name" : "BlocksPaper",
			"pbrMetallicRoughness" : 
			{
				"baseColorFactor" : 
				[
					1,
					1,
					1,
					1
				],
				"metallicFactor" : 0,
				"roughnessFactor" : 0.6
			}
		},
		{
			"alphaMode" : "BLEND",
			"doubleSided" : false,
			"name" : "BlocksGlass",
			"pbrMetallicRoughness" : 
			{
				"baseColorFactor" : 
				[
					0.2,
					0.2,
					1,
					0.3
				],
				"metallicFactor" : 1,
				"roughnessFactor" : 0.4
			}
		},
		{
			"alphaMode" : "OPAQUE",
			"doubleSided" : true,
			"name" : "BlocksGem",
			"pbrMetallicRoughness" : 
			{
				"baseColorFactor" : 
				[
					1,
					0.4,
					1,
					1
				],
				"metallicFactor" : 0,
				"roughnessFactor" : 0.1
			}
		}
	],
	"meshes" : 
	[
		{
			"name" : "mesh_m0-PolyPaper12_-910144",
			"primitives" : 
			[
				{
					"attributes" : 
					{
						"COLOR_0" : 0,
						"NORMAL" : 22,
						"POSITION" : 33
					},
					"indices" : 11,
					"material" : 0,
					"mode" : 4
				}
			]
		},
		{
			"name" : "mesh_m1-PolyPaper19_-896956",
			"primitives" : 
			[
				{
					"attributes" : 
					{
						"COLOR_0" : 1,
						"NORMAL" : 23,
						"POSITION" : 34
					},
					"indices" : 12,
					"material" : 0,
					"mode" : 4
				}
			]
		},
		{
			"name" : "mesh_m10-PolyPaper13_-910140",
			"primitives" : 
			[
				{
					"attributes" : 
					{
						"COLOR_0" : 2,
						"NORMAL" : 24,
						"POSITION" : 35
					},
					"indices" : 13,
					"material" : 0,
					"mode" : 4
				}
			]
		},
		{
			"name" : "mesh_m2-PolyPaper13_-896958",
			"primitives" : 
			[
				{
					"attributes" : 
					{
						"COLOR_0" : 3,
						"NORMAL" : 25,
						"POSITION" : 36
					},
					"indices" : 14,
					"material" : 0,
					"mode" : 4
				}
			]
		},
		{
			"name" : "mesh_m3-PolyPaper23_-896960",
			"primitives" : 
			[
				{
					"attributes" : 
					{
						"COLOR_0" : 4,
						"NORMAL" : 26,
						"POSITION" : 37
					},
					"indices" : 15,
					"material" : 0,
					"mode" : 4
				}
			]
		},
		{
			"name" : "mesh_m4-PolyPaper22_-896962",
			"primitives" : 
			[
				{
					"attributes" : 
					{
						"COLOR_0" : 5,
						"NORMAL" : 27,
						"POSITION" : 38
					},
					"indices" : 16,
					"material" : 0,
					"mode" : 4
				}
			]
		},
		{
			"name" : "mesh_m5-PolyPaper22_-896964",
			"primitives" : 
			[
				{
					"attributes" : 
					{
						"COLOR_0" : 6,
						"NORMAL" : 28,
						"POSITION" : 39
					},
					"indices" : 17,
					"material" : 0,
					"mode" : 4
				}
			]
		},
		{
			"name" : "mesh_m6-PolyPaper22_-896966",
			"primitives" : 
			[
				{
					"attributes" : 
					{
						"COLOR_0" : 7,
						"NORMAL" : 29,
						"POSITION" : 40
					},
					"indices" : 18,
					"material" : 0,
					"mode" : 4
				}
			]
		},
		{
			"name" : "mesh_m7-PolyPaper22_-896968",
			"primitives" : 
			[
				{
					"attributes" : 
					{
						"COLOR_0" : 8,
						"NORMAL" : 30,
						"POSITION" : 41
					},
					"indices" : 19,
					"material" : 0,
					"mode" : 4
				}
			]
		},
		{
			"name" : "mesh_m8-PolyPaper23_-896970",
			"primitives" : 
			[
				{
					"attributes" : 
					{
						"COLOR_0" : 9,
						"NORMAL" : 31,
						"POSITION" : 42
					},
					"indices" : 20,
					"material" : 0,
					"mode" : 4
				}
			]
		},
		{
			"name" : "mesh_m9-PolyGem25_-910142",
			"primitives" : 
			[
				{
					"attributes" : 
					{
						"COLOR_0" : 10,
						"NORMAL" : 32,
						"POSITION" : 43
					},
					"indices" : 21,
					"material" : 2,
					"mode" : 4
				}
			]
		}
	],
	"nodes" : 
	[
		{
			"matrix" : 
			[
				1,
				0,
				0,
				0,
				0,
				1,
				0,
				0,
				0,
				0,
				1,
				0,
				0,
				0,
				0,
				1
			],
			"mesh" : 6,
			"name" : "node_MeshObject-1129395136-PolyPaper22"
		},
		{
			"matrix" : 
			[
				1,
				0,
				0,
				0,
				0,
				1,
				0,
				0,
				0,
				0,
				1,
				0,
				0,
				0,
				0,
				1
			],
			"mesh" : 5,
			"name" : "node_MeshObject-1648115200-PolyPaper22"
		},
		{
			"matrix" : 
			[
				1,
				0,
				0,
				0,
				0,
				1,
				0,
				0,
				0,
				0,
				1,
				0,
				0,
				0,
				0,
				1
			],
			"mesh" : 7,
			"name" : "node_MeshObject-610675072-PolyPaper22"
		},
		{
			"matrix" : 
			[
				1,
				0,
				0,
				0,
				0,
				1,
				0,
				0,
				0,
				0,
				1,
				0,
				0,
				0,
				0,
				1
			],
			"mesh" : 8,
			"name" : "node_MeshObject-91955008-PolyPaper22"
		},
		{
			"matrix" : 
			[
				1,
				0,
				0,
				0,
				0,
				1,
				0,
				0,
				0,
				0,
				1,
				0,
				0,
				0,
				0,
				1
			],
			"mesh" : 1,
			"name" : "node_MeshObject1090691904-PolyPaper19"
		},
		{
			"matrix" : 
			[
				1,
				0,
				0,
				0,
				0,
				1,
				0,
				0,
				0,
				0,
				1,
				0,
				0,
				0,
				0,
				1
			],
			"mesh" : 0,
			"name" : "node_MeshObject1195240320-PolyPaper12"
		},
		{
			"matrix" : 
			[
				1,
				0,
				0,
				0,
				0,
				1,
				0,
				0,
				0,
				0,
				1,
				0,
				0,
				0,
				0,
				1
			],
			"mesh" : 2,
			"name" : "node_MeshObject157800192-PolyPaper13"
		},
		{
			"matrix" : 
			[
				1,
				0,
				0,
				0,
				0,
				1,
				0,
				0,
				0,
				0,
				1,
				0,
				0,
				0,
				0,
				1
			],
			"mesh" : 3,
			"name" : "node_MeshObject1609411968-PolyPaper13"
		},
		{
			"matrix" : 
			[
				1,
				0,
				0,
				0,
				0,
				1,
				0,
				0,
				0,
				0,
				1,
				0,
				0,
				0,
				0,
				1
			],
			"mesh" : 4,
			"name" : "node_MeshObject2128132032-PolyPaper23"
		},
		{
			"matrix" : 
			[
				1,
				0,
				0,
				0,
				0,
				1,
				0,
				0,
				0,
				0,
				1,
				0,
				0,
				0,
				0,
				1
			],
			"mesh" : 9,
			"name" : "node_MeshObject426765056-PolyPaper23"
		},
		{
			"matrix" : 
			[
				1,
				0,
				0,
				0,
				0,
				1,
				0,
				0,
				0,
				0,
				1,
				0,
				0,
				0,
				0,
				1
			],
			"mesh" : 10,
			"name" : "node_MeshObject676520256-PolyGem25"
		}
	],
	"scene" : 0,
	"scenes" : 
	[
		{
			"extras" : {},
			"name" : "defaultScene",
			"nodes" : 
			[
				5,
				4,
				7,
				8,
				1,
				0,
				2,
				3,
				9,
				10,
				6
			]
		}
	]
}