{
	"accessors" : 
	[
		{
			"bufferView" : 2,
			"byteOffset" : 0,
			"componentType" : 5126,
			"count" : 168,
			"max" : 
			[
				1,
				1,
				1,
				1
			],
			"min" : 
			[
				1,
				1,
				1,
				1
			],
			"name" : "accessor_color_m0-PolyGem25_-443482",
			"type" : "VEC4"
		},
		{
			"bufferView" : 2,
			"byteOffset" : 2688,
			"componentType" : 5126,
			"count" : 8562,
			"max" : 
			[
				1,
				1,
				1,
				1
			],
			"min" : 
			[
				5.692175545846112e-05,
				0.006584956776350737,
				0,
				1
			],
			"name" : "accessor_color_m1-PolyPaper17_-448022",
			"type" : "VEC4"
		},
		{
			"bufferView" : 0,
			"byteOffset" : 0,
			"componentType" : 5123,
			"count" : 300,
			"max" : 
			[
				167
			],
			"min" : 
			[
				0
			],
			"name" : "accessor_indices_0_m0-PolyGem25_-443482",
			"type" : "SCALAR"
		},
		{
			"bufferView" : 0,
			"byteOffset" : 600,
			"componentType" : 5123,
			"count" : 13296,
			"max" : 
			[
				8561
			],
			"min" : 
			[
				0
			],
			"name" : "accessor_indices_0_m1-PolyPaper17_-448022",
			"type" : "SCALAR"
		},
		{
			"bufferView" : 1,
			"byteOffset" : 2016,
			"componentType" : 5126,
			"count" : 168,
			"max" : 
			[
				0.9191522,
				0.9993038,
				0.9186512
			],
			"min" : 
			[
				-0.9191521,
				-0.9993038,
				-0.9186512
			],
			"name" : "accessor_normal_m0-PolyGem25_-443482",
			"type" : "VEC3"
		},
		{
			"bufferView" : 1,
			"byteOffset" : 106776,
			"componentType" : 5126,
			"count" : 8562,
			"max" : 
			[
				0.9960723,
				0.9999749,
				0.9967874
			],
			"min" : 
			[
				-0.999532,
				-0.9999748000000001,
				-0.9889992
			],
			"name" : "accessor_normal_m1-PolyPaper17_-448022",
			"type" : "VEC3"
		},
		{
			"bufferView" : 1,
			"byteOffset" : 0,
			"componentType" : 5126,
			"count" : 168,
			"max" : 
			[
				0.9477553,
				1.262803,
				-0.7102411
			],
			"min" : 
			[
				0.2901711,
				0.9137048,
				-1.261883
			],
			"name" : "accessor_position_m0-PolyGem25_-443482",
			"type" : "VEC3"
		},
		{
			"bufferView" : 1,
			"byteOffset" : 4032,
			"componentType" : 5126,
			"count" : 8562,
			"max" : 
			[
				1.039267,
				1.65011,
				2.120053
			],
			"min" : 
			[
				-2.483913,
				0.5281258,
				-1.288832
			],
			"name" : "accessor_position_m1-PolyPaper17_-448022",
			"type" : "VEC3"
		}
	],
	"asset" : 
	{
		"copyright" : "Unknown",
		"generator" : "glTF 1-to-2 Upgrader for Google Blocks",
		"version" : "2.0"
	},
	"bufferViews" : 
	[
		{
			"buffer" : 0,
			"byteLength" : 27192,
			"byteOffset" : 0,
			"name" : "ushortBufferView",
			"target" : 34963
		},
		{
			"buffer" : 0,
			"byteLength" : 209520,
			"byteOffset" : 27192,
			"byteStride" : 12,
			"name" : "vec3BufferView",
			"target" : 34962
		},
		{
			"buffer" : 0,
			"byteLength" : 139680,
			"byteOffset" : 236712,
			"byteStride" : 16,
			"name" : "vec4BufferView",
			"target" : 34962
		}
	],
	"buffers" : 
	[
		{
			"byteLength" : 376392,
			"name" : "model",
			"uri" : "model.bin"
		}
	],
	"materials" : 
	[
		{
			"alphaMode" : "OPAQUE",
			"doubleSided" : false,
			"name" : "BlocksPaper",
			"pbrMetallicRoughness" : 
			{
				"baseColorFactor" : 
				[
					1,
					1,
					1,
					1
				],
				"metallicFactor" : 0,
				"roughnessFactor" : 0.6
			}
		},
		{
			"alphaMode" : "BLEND",
			"doubleSided" : false,
			"name" : "BlocksGlass",
			"pbrMetallicRoughness" : 
			{
				"baseColorFactor" : 
				[
					0.2,
					0.2,
					1,
					0.3
				],
				"metallicFactor" : 1,
				"roughnessFactor" : 0.4
			}
		},
		{
			"alphaMode" : "OPAQUE",
			"doubleSided" : true,
			"name" : "BlocksGem",
			"pbrMetallicRoughness" : 
			{
				"baseColorFactor" : 
				[
					1,
					0.4,
					1,
					1
				],
				"metallicFactor" : 0,
				"roughnessFactor" : 0.1
			}
		}
	],
	"meshes" : 
	[
		{
			"name" : "mesh_m0-PolyGem25_-443482",
			"primitives" : 
			[
				{
					"attributes" : 
					{
						"COLOR_0" : 0,
						"NORMAL" : 4,
						"POSITION" : 6
					},
					"indices" : 2,
					"material" : 2,
					"mode" : 4
				}
			]
		},
		{
			"name" : "mesh_m1-PolyPaper17_-448022",
			"primitives" : 
			[
				{
					"attributes" : 
					{
						"COLOR_0" : 1,
						"NORMAL" : 5,
						"POSITION" : 7
					},
					"indices" : 3,
					"material" : 0,
					"mode" : 4
				}
			]
		}
	],
	"nodes" : 
	[
		{
			"matrix" : 
			[
				1,
				0,
				0,
				0,
				0,
				1,
				0,
				0,
				0,
				0,
				1,
				0,
				0,
				0,
				0,
				1
			],
			"mesh" : 0,
			"name" : "node_MeshObject-1384581696-PolyGem25"
		},
		{
			"matrix" : 
			[
				1,
				0,
				0,
				0,
				0,
				1,
				0,
				0,
				0,
				0,
				1,
				0,
				0,
				0,
				0,
				1
			],
			"mesh" : 1,
			"name" : "node_MeshObject483466880-PolyPaper17"
		}
	],
	"scene" : 0,
	"scenes" : 
	[
		{
			"extras" : {},
			"name" : "defaultScene",
			"nodes" : 
			[
				0,
				1
			]
		}
	]
}