{
  "accessors": [
    {
      "bufferView": 0,
      "byteOffset": 0,
      "componentType": 5123,
      "count": 1356,
      "max": [
        1355.0
      ],
      "min": [
        0.0
      ],
      "name": "buffer-0-accessor-indices-buffer-0-mesh-0",
      "type": "SCALAR"
    },
    {
      "bufferView": 2,
      "byteOffset": 0,
      "componentType": 5126,
      "count": 1356,
      "max": [
        0.0,
        1500.8392333984375,
        2066.477294921875
      ],
      "min": [
        -622.5269775390625,
        0.0,
        0.0
      ],
      "name": "buffer-0-accessor-position-buffer-0-mesh-0",
      "type": "VEC3"
    },
    {
      "bufferView": 2,
      "byteOffset": 16272,
      "componentType": 5126,
      "count": 1356,
      "max": [
        1.0,
        1.0,
        1.0
      ],
      "min": [
        -1.0,
        -1.0,
        -1.0
      ],
      "name": "buffer-0-accessor-normal-buffer-0-mesh-0",
      "type": "VEC3"
    },
    {
      "bufferView": 1,
      "byteOffset": 0,
      "componentType": 5126,
      "count": 1356,
      "max": [
        1.0277999639511108,
        0.0
      ],
      "min": [
        0.0,
        -1.0
      ],
      "name": "buffer-0-accessor-texcoord-buffer-0-mesh-0",
      "type": "VEC2"
    },
    {
      "bufferView": 3,
      "byteOffset": 0,
      "componentType": 5126,
      "count": 0,
      "max": [
        0.0,
        0.0,
        0.0,
        0.0
      ],
      "min": [
        0.0,
        0.0,
        0.0,
        0.0
      ],
      "name": "buffer-0-accessor-color-buffer-0-mesh-0",
      "type": "VEC4"
    },
    {
      "bufferView": 0,
      "byteOffset": 2712,
      "componentType": 5123,
      "count": 648,
      "max": [
        647.0
      ],
      "min": [
        0.0
      ],
      "name": "buffer-0-accessor-indices-buffer-0-mesh-0",
      "type": "SCALAR"
    },
    {
      "bufferView": 2,
      "byteOffset": 32544,
      "componentType": 5126,
      "count": 648,
      "max": [
        0.0,
        1475.3873291015625,
        1972.9305419921875
      ],
      "min": [
        -596.289794921875,
        0.0,
        0.0
      ],
      "name": "buffer-0-accessor-position-buffer-0-mesh-0",
      "type": "VEC3"
    },
    {
      "bufferView": 2,
      "byteOffset": 40320,
      "componentType": 5126,
      "count": 648,
      "max": [
        1.0,
        0.9847999811172485,
        1.0
      ],
      "min": [
        -1.0,
        -0.9847999811172485,
        -1.0
      ],
      "name": "buffer-0-accessor-normal-buffer-0-mesh-0",
      "type": "VEC3"
    },
    {
      "bufferView": 1,
      "byteOffset": 10848,
      "componentType": 5126,
      "count": 648,
      "max": [
        0.9721999764442444,
        0.0
      ],
      "min": [
        -0.027799999341368675,
        -1.0
      ],
      "name": "buffer-0-accessor-texcoord-buffer-0-mesh-0",
      "type": "VEC2"
    },
    {
      "bufferView": 3,
      "byteOffset": 0,
      "componentType": 5126,
      "count": 0,
      "max": [
        0.0,
        0.0,
        0.0,
        0.0
      ],
      "min": [
        0.0,
        0.0,
        0.0,
        0.0
      ],
      "name": "buffer-0-accessor-color-buffer-0-mesh-0",
      "type": "VEC4"
    },
    {
      "bufferView": 0,
      "byteOffset": 4008,
      "componentType": 5123,
      "count": 648,
      "max": [
        647.0
      ],
      "min": [
        0.0
      ],
      "name": "buffer-0-accessor-indices-buffer-0-mesh-0",
      "type": "SCALAR"
    },
    {
      "bufferView": 2,
      "byteOffset": 48096,
      "componentType": 5126,
      "count": 648,
      "max": [
        0.0,
        1106.87109375,
        1972.9305419921875
      ],
      "min": [
        -596.289794921875,
        0.0,
        0.0
      ],
      "name": "buffer-0-accessor-position-buffer-0-mesh-0",
      "type": "VEC3"
    },
    {
      "bufferView": 2,
      "byteOffset": 55872,
      "componentType": 5126,
      "count": 648,
      "max": [
        1.0,
        0.9847999811172485,
        1.0
      ],
      "min": [
        -1.0,
        -0.9847999811172485,
        -1.0
      ],
      "name": "buffer-0-accessor-normal-buffer-0-mesh-0",
      "type": "VEC3"
    },
    {
      "bufferView": 1,
      "byteOffset": 16032,
      "componentType": 5126,
      "count": 648,
      "max": [
        0.9721999764442444,
        0.0
      ],
      "min": [
        -0.027799999341368675,
        -1.0
      ],
      "name": "buffer-0-accessor-texcoord-buffer-0-mesh-0",
      "type": "VEC2"
    },
    {
      "bufferView": 3,
      "byteOffset": 0,
      "componentType": 5126,
      "count": 0,
      "max": [
        0.0,
        0.0,
        0.0,
        0.0
      ],
      "min": [
        0.0,
        0.0,
        0.0,
        0.0
      ],
      "name": "buffer-0-accessor-color-buffer-0-mesh-0",
      "type": "VEC4"
    },
    {
      "bufferView": 0,
      "byteOffset": 5304,
      "componentType": 5123,
      "count": 648,
      "max": [
        647.0
      ],
      "min": [
        0.0
      ],
      "name": "buffer-0-accessor-indices-buffer-0-mesh-0",
      "type": "SCALAR"
    },
    {
      "bufferView": 2,
      "byteOffset": 63648,
      "componentType": 5126,
      "count": 648,
      "max": [
        0.0,
        1291.0350341796875,
        1972.9305419921875
      ],
      "min": [
        -596.289794921875,
        0.0,
        0.0
      ],
      "name": "buffer-0-accessor-position-buffer-0-mesh-0",
      "type": "VEC3"
    },
    {
      "bufferView": 2,
      "byteOffset": 71424,
      "componentType": 5126,
      "count": 648,
      "max": [
        1.0,
        0.9847999811172485,
        1.0
      ],
      "min": [
        -1.0,
        -0.9847999811172485,
        -1.0
      ],
      "name": "buffer-0-accessor-normal-buffer-0-mesh-0",
      "type": "VEC3"
    },
    {
      "bufferView": 1,
      "byteOffset": 21216,
      "componentType": 5126,
      "count": 648,
      "max": [
        0.9721999764442444,
        0.0
      ],
      "min": [
        -0.027799999341368675,
        -1.0
      ],
      "name": "buffer-0-accessor-texcoord-buffer-0-mesh-0",
      "type": "VEC2"
    },
    {
      "bufferView": 3,
      "byteOffset": 0,
      "componentType": 5126,
      "count": 0,
      "max": [
        0.0,
        0.0,
        0.0,
        0.0
      ],
      "min": [
        0.0,
        0.0,
        0.0,
        0.0
      ],
      "name": "buffer-0-accessor-color-buffer-0-mesh-0",
      "type": "VEC4"
    }
  ],
  "asset": {
    "generator": "Obj2GltfConverter",
    "version": "2.0"
  },
  "bufferViews": [
    {
      "buffer": 0,
      "byteLength": 6600,
      "byteOffset": 0,
      "byteStride": 0,
      "name": "buffer-0-bufferview-ushort",
      "target": 34963
    },
    {
      "buffer": 0,
      "byteLength": 26400,
      "byteOffset": 6600,
      "byteStride": 8,
      "name": "buffer-0-bufferview-vec2",
      "target": 34962
    },
    {
      "buffer": 0,
      "byteLength": 79200,
      "byteOffset": 33000,
      "byteStride": 12,
      "name": "buffer-0-bufferview-vec3",
      "target": 34962
    },
    {
      "buffer": 0,
      "byteLength": 0,
      "byteOffset": 112208,
      "byteStride": 16,
      "name": "buffer-0-bufferview-vec4",
      "target": 34962
    }
  ],
  "buffers": [
    {
      "byteLength": 112208,
      "name": "buffer-0",
      "uri": "Traffic light.bin"
    }
  ],
  "materials": [
    {
      "alphaMode": "OPAQUE",
      "doubleSided": true,
      "name": "_crayfishdiffuse",
      "pbrMetallicRoughness": {
        "baseColorFactor": [
          0.0314,
          0.0314,
          0.0314,
          1.0
        ],
        "metallicFactor": 0.0,
        "roughnessFactor": 0.9124375732201923
      }
    },
    {
      "alphaMode": "OPAQUE",
      "doubleSided": true,
      "name": "07___Default",
      "pbrMetallicRoughness": {
        "baseColorFactor": [
          1.0,
          0.0471,
          0.0471,
          1.0
        ],
        "metallicFactor": 0.0,
        "roughnessFactor": 0.9699476628648295
      }
    },
    {
      "alphaMode": "OPAQUE",
      "doubleSided": true,
      "name": "02___Default",
      "pbrMetallicRoughness": {
        "baseColorFactor": [
          0.1255,
          1.0,
          0.1255,
          1.0
        ],
        "metallicFactor": 0.0,
        "roughnessFactor": 0.9699476628648295
      }
    },
    {
      "alphaMode": "OPAQUE",
      "doubleSided": true,
      "name": "03___Default",
      "pbrMetallicRoughness": {
        "baseColorFactor": [
          1.0,
          0.9647,
          0.051,
          1.0
        ],
        "metallicFactor": 0.0,
        "roughnessFactor": 0.9699476628648295
      }
    }
  ],
  "meshes": [
    {
      "name": "buffer-0-mesh-0",
      "primitives": [
        {
          "attributes": {
            "POSITION": 1,
            "NORMAL": 2,
            "TEXCOORD_0": 3
          },
          "indices": 0,
          "material": 0,
          "mode": 4
        },
        {
          "attributes": {
            "POSITION": 6,
            "NORMAL": 7,
            "TEXCOORD_0": 8
          },
          "indices": 5,
          "material": 1,
          "mode": 4
        },
        {
          "attributes": {
            "POSITION": 11,
            "NORMAL": 12,
            "TEXCOORD_0": 13
          },
          "indices": 10,
          "material": 2,
          "mode": 4
        },
        {
          "attributes": {
            "POSITION": 16,
            "NORMAL": 17,
            "TEXCOORD_0": 18
          },
          "indices": 15,
          "material": 3,
          "mode": 4
        }
      ]
    }
  ],
  "nodes": [
    {
      "mesh": 0,
      "name": "node-0"
    }
  ],
  "scenes": [
    {
      "name": "scene-0",
      "nodes": [
        0
      ]
    }
  ]
}